<svg xmlns="http://www.w3.org/2000/svg" viewBox="0 0 64 64">
  <!-- Neo-Tactile Base Card -->
  <rect x="2" y="2" width="60" height="60" rx="16" fill="#4F46E5" stroke="#0F172A" stroke-width="4"/>
  <rect x="6" y="6" width="52" height="52" rx="12" fill="#6366F1" opacity="0.4"/>
  
  <!-- Sparks / Rays -->
  <path d="M 32 10 L 32 14" stroke="#FDE047" stroke-width="3" stroke-linecap="round"/>
  <path d="M 18 16 L 21 19" stroke="#FDE047" stroke-width="3" stroke-linecap="round"/>
  <path d="M 46 16 L 43 19" stroke="#FDE047" stroke-width="3" stroke-linecap="round"/>
  
  <!-- Lightbulb Body -->
  <path d="M 23 29 C 23 23.5 27 19 32 19 C 37 19 41 23.5 41 29 C 41 33 38 35.5 37 38 L 27 38 C 26 35.5 23 33 23 29 Z" 
        fill="#FDE047" stroke="#0F172A" stroke-width="3" stroke-linejoin="round"/>
        
  <!-- Filament -->
  <path d="M 29 28 Q 32 24 35 28" fill="none" stroke="#D97706" stroke-width="2" stroke-linecap="round"/>
  
  <!-- Bulb Screw Base -->
  <path d="M 27 41 L 37 41" stroke="#0F172A" stroke-width="3" stroke-linecap="round"/>
  <path d="M 28 45 L 36 45" stroke="#0F172A" stroke-width="3" stroke-linecap="round"/>
  <path d="M 30 49 L 34 49" stroke="#0F172A" stroke-width="3" stroke-linecap="round"/>
</svg>
